# xmcd
#
# Track frame offsets: 
#        150
#        15828
#        30415
#        43656
#        57759
#        73441
#        85357
#        97197
#        110479
#        124931
#        136575
#        151493
#        160768
#        175028
#        188498
#        202560
#
# Disc length: 2860 seconds
#
# Revision: 0
# Processed by: cddbd v1.5.2PL0 Copyright (c) Steve Scherf et al.
# Submitted via: ExactAudioCopy v0.95b4
#
DISCID=c50b2a10
DTITLE=Marlene Dietrich - Blonde Woman
DYEAR=1900
DGENRE=Cabaret
TTITLE0=Assez
TTITLE1=Blonde Woman
TTITLE2=Falling In Love Again
TTITLE3=Give Me The Man
TTITLE4=Hot Voodoo
TTITLE5=I Gotta Get A Man
TTITLE6=I've Been In Love Before
TTITLE7=Johnny
TTITLE8=Mion Je Mennuie
TTITLE9=Naughty Lola
TTITLE10=Peter
TTITLE11=The Boys In The Backroom
TTITLE12=Wo Ist Der Mann
TTITLE13=You Do Something To Me
TTITLE14=You Go To My Head
TTITLE15=You've Got That Look
EXTD=
EXTT0=
EXTT1=
EXTT2=
EXTT3=
EXTT4=
EXTT5=
EXTT6=
EXTT7=
EXTT8=
EXTT9=
EXTT10=
EXTT11=
EXTT12=
EXTT13=
EXTT14=
EXTT15=
PLAYORDER=
